# xmcd
#
# Track frame offsets:
#	150
#	24142
#	45383
#	61745
#	83420
#	97897
#	118572
#	138514
#	174516
#	203578
#	231980
#	258800
#	283231
#	317692
#
# Disc length: 4697 seconds
#
# Revision: 0
# Processed by: cddbd v1.5.2PL0 Copyright (c) Steve Scherf et al.
# Submitted via: EZCDAudioConverter 2.1.7.1
#
DISCID=aa12570e
DTITLE=Blow Monkeys - Animal Magic 2/2
DYEAR=1900
DGENRE=
TTITLE0=Digging Your Scene [Original Pete Wilson Mix]
TTITLE1=Aeroplane City Lovesong [Pete Wilson Remix]
TTITLE2=Guess I Love Her Now [Demo]
TTITLE3=Forbidden Fruit [Demo]
TTITLE4=Animal Magic [Demo]
TTITLE5=Wicked Ways [Demo]
TTITLE6=I Nearly Died Laughing [Demo]
TTITLE7=Sweet Murder [Demo]
TTITLE8=Digging Your Scene [Long]
TTITLE9=Wicked Ways [Long]
TTITLE10=Don't Be Scared Of Me [Extended Version]
TTITLE11=Sweet Murder (The Smile On Her Face) [Extended Version]
TTITLE12=Digging Your Scene [Phil Harding Remix]
TTITLE13=Sweet Murder (The Smile On Her Face) [Murderess Dub]
EXTD=
EXTT0=
EXTT1=
EXTT2=
EXTT3=
EXTT4=
EXTT5=
EXTT6=
EXTT7=
EXTT8=
EXTT9=
EXTT10=
EXTT11=
EXTT12=
EXTT13=
PLAYORDER=
